<?xml version="1.0" encoding="UTF-8"?><svg id="uuid-7e98ef8f-0b41-4e81-9de5-2417606d5d5f" xmlns="http://www.w3.org/2000/svg" width="889.18" height="259.71" viewBox="0 0 889.18 259.71"><defs><style>.uuid-cc0e5cce-3b7d-4612-83b9-b6890391d15d{fill:#2d2f6d;}</style></defs><path class="uuid-cc0e5cce-3b7d-4612-83b9-b6890391d15d" d="M147.16,67.61c20.36-16.96,45.96-25.44,76.8-25.44s57.11,7.61,77.09,22.83l-22.98,27.59c-5.63-4.6-13-8.4-22.11-11.41-9.12-3.01-18.72-4.52-28.8-4.52-18.04,0-33.02,5.08-44.95,15.22-11.93,10.15-17.89,22.67-17.89,37.57s5.72,27.58,17.16,36.62c11.44,9.04,25.7,13.55,42.76,13.55,14.15,0,26.23-3.6,36.22-10.82,9.99-7.21,15.37-16.45,16.15-27.7h-50.62v-24.73h121.89v24.73h-23.56c-1.75,21.25-11.88,38.92-30.4,53.03-18.52,14.11-41.75,21.16-69.67,21.16-30.84,0-56.54-8.16-77.09-24.49-20.56-16.33-30.84-36.7-30.84-61.11s10.28-45.1,30.84-62.07Z"/><path class="uuid-cc0e5cce-3b7d-4612-83b9-b6890391d15d" d="M367.37,45.5h98.04c19.2,0,34.71,3.61,46.55,10.82,11.83,7.22,17.75,16.92,17.75,29.13,0,16.17-9.6,27.74-28.8,34.72v2.14c13.77,3.17,24.73,8.52,32.87,16.05,8.14,7.53,12.22,16.45,12.22,26.75,0,14.43-7.08,25.84-21.24,34.24-14.16,8.4-32.2,12.6-54.11,12.6h-103.27V45.5Zm89.6,68.72c8.15,0,14.79-1.74,19.93-5.23,5.14-3.49,7.71-8,7.71-13.56s-2.52-10.26-7.56-13.67c-5.05-3.41-11.74-5.11-20.07-5.11h-41.6v37.57h41.6Zm-41.6,23.54v41.85h46.55c9.5,0,17.16-1.98,22.98-5.95,5.82-3.96,8.73-9.04,8.73-15.22s-2.91-11.37-8.73-15.1c-5.82-3.72-13.58-5.59-23.27-5.59h-46.25Z"/><path class="uuid-cc0e5cce-3b7d-4612-83b9-b6890391d15d" d="M573.92,164.63c23.08,13.16,48.39,19.74,75.93,19.74,10.86,0,19.93-1.7,27.2-5.11,7.27-3.41,10.91-7.88,10.91-13.44,0-5.23-3.01-9.39-9.02-12.48-6.01-3.09-17.07-5.98-33.16-8.68-50.62-8.4-75.93-25.92-75.93-52.55,0-14.9,7.27-26.95,21.82-36.15,14.55-9.19,35.1-13.79,61.67-13.79,22.69,0,44.8,3.09,66.33,9.27v32.34c-19.01-7.29-39.08-10.94-60.22-10.94-11.25,0-20.7,1.78-28.36,5.35-7.66,3.57-11.49,7.89-11.49,12.96s2.95,9.12,8.87,12.13c5.91,3.01,16.63,5.79,32.15,8.32,26.18,4.12,45.43,10.34,57.75,18.67,12.31,8.32,18.47,19.3,18.47,32.94,0,15.38-7.32,27.9-21.96,37.57-14.65,9.67-35.15,14.51-61.53,14.51-16.1,0-33.07-1.94-50.91-5.83-17.85-3.88-32.29-8.84-43.35-14.86l14.84-29.96Z"/></svg>