<?xml version="1.0" encoding="UTF-8"?><svg id="uuid-d59ecf87-21dc-4657-8036-56dc59d3741a" xmlns="http://www.w3.org/2000/svg" width="889.18" height="259.71" viewBox="0 0 889.18 259.71"><defs><style>.uuid-7dac506a-1ddf-43fc-906e-f0e0aae7b80b{fill:#2d2f6d;}</style></defs><path class="uuid-7dac506a-1ddf-43fc-906e-f0e0aae7b80b" d="M58.12,47.48C86.38,23.94,121.91,12.17,164.7,12.17s79.26,10.56,106.99,31.68l-31.9,38.28c-7.81-6.38-18.04-11.66-30.68-15.84-12.65-4.18-25.98-6.27-39.97-6.27-25.03,0-45.82,7.04-62.38,21.12-16.55,14.08-24.83,31.47-24.83,52.14s7.94,38.28,23.82,50.83c15.88,12.54,35.66,18.81,59.35,18.81,19.64,0,36.4-5,50.26-15.02,13.86-10.01,21.33-22.82,22.41-38.45h-70.25v-34.32h169.17v34.32h-32.7c-2.42,29.49-16.49,54.02-42.19,73.6-25.71,19.58-57.94,29.37-96.69,29.37-42.8,0-78.46-11.33-106.99-33.99-28.53-22.66-42.8-50.93-42.8-84.82s14.26-62.59,42.8-86.14Z"/><path class="uuid-7dac506a-1ddf-43fc-906e-f0e0aae7b80b" d="M363.74,16.79h136.06c26.65,0,48.18,5.01,64.6,15.02,16.41,10.01,24.63,23.49,24.63,40.43,0,22.44-13.32,38.51-39.97,48.18v2.97c19.11,4.4,34.32,11.83,45.62,22.28,11.3,10.45,16.96,22.83,16.96,37.13,0,20.02-9.83,35.86-29.47,47.52-19.65,11.66-44.68,17.49-75.09,17.49h-143.33V16.79Zm124.35,95.38c11.3,0,20.52-2.42,27.66-7.26,7.13-4.84,10.7-11.11,10.7-18.81s-3.5-14.24-10.5-18.98c-7-4.73-16.29-7.1-27.86-7.1h-57.73v52.14h57.73Zm-57.73,32.67v58.08h64.6c13.18,0,23.82-2.75,31.9-8.25,8.07-5.5,12.11-12.54,12.11-21.12s-4.04-15.78-12.11-20.96c-8.08-5.17-18.84-7.75-32.3-7.75h-64.19Z"/><path class="uuid-7dac506a-1ddf-43fc-906e-f0e0aae7b80b" d="M650.39,182.13c32.03,18.26,67.15,27.39,105.38,27.39,15.07,0,27.66-2.36,37.75-7.1,10.09-4.73,15.14-10.94,15.14-18.65,0-7.26-4.18-13.04-12.52-17.33-8.35-4.29-23.69-8.3-46.03-12.05-70.25-11.66-105.38-35.97-105.38-72.94,0-20.68,10.09-37.4,30.28-50.16,20.19-12.76,48.71-19.14,85.59-19.14,31.49,0,62.17,4.29,92.05,12.87v44.88c-26.38-10.12-54.24-15.18-83.57-15.18-15.61,0-28.73,2.48-39.36,7.43-10.64,4.95-15.95,10.95-15.95,17.99s4.1,12.66,12.31,16.83c8.21,4.18,23.08,8.03,44.61,11.55,36.34,5.72,63.05,14.36,80.14,25.91,17.09,11.55,25.64,26.79,25.64,45.71,0,21.34-10.16,38.73-30.48,52.14-20.33,13.42-48.79,20.13-85.39,20.13-22.34,0-45.89-2.7-70.65-8.08-24.77-5.39-44.81-12.26-60.16-20.63l20.59-41.58Z"/></svg>